<?xml version="1.0" encoding="UTF-8" standalone="no"?>
<!DOCTYPE svg PUBLIC "-//W3C//DTD SVG 1.1//EN" "http://www.w3.org/Graphics/SVG/1.1/DTD/svg11.dtd">
<svg width="100%" height="100%" viewBox="0 0 712 726" version="1.1" xmlns="http://www.w3.org/2000/svg" xmlns:xlink="http://www.w3.org/1999/xlink" xml:space="preserve" xmlns:serif="http://www.serif.com/" style="fill-rule:evenodd;clip-rule:evenodd;stroke-linecap:round;stroke-linejoin:round;stroke-miterlimit:1.5;">
    <g transform="matrix(1,0,0,1,-589.688177,-723.325728)">
        <path d="M937.172,1003.517C1012.607,1101.168 1230.709,1224.453 1301.072,1243.643L1301.072,1448.358L589.688,1448.358C589.688,1448.358 812.069,1204.429 835.576,1028.585C835.619,1028.263 835.662,1027.941 835.703,1027.619C836.1,1024.563 836.436,1021.528 836.709,1018.516C849.915,1012.978 863.538,1008.197 877.12,1004.235C891.682,999.988 910.585,996.427 931.084,995.243C932.958,997.928 934.949,1000.635 937.053,1003.362C937.093,1003.414 937.132,1003.466 937.172,1003.517ZM818.588,835.17C808.455,777.762 798.389,745.25 794.403,723.326C794.403,723.326 805.292,758.036 839.108,827.455C832.184,829.559 825.319,832.148 818.588,835.17ZM836.441,978.428C832.994,936.468 828.812,901.164 824.416,871.274C834.417,866.385 844.834,862.51 855.317,859.875C870.533,889.578 889.193,924.126 911.926,963.521C886.458,965.53 860.851,970.664 836.441,978.428Z" style="fill:url(#_Linear1);"/>
        <g transform="matrix(0.99823,0.059473,-0.059473,0.99823,54.799444,-62.439008)">
            <path d="M818.588,835.17C825.319,832.148 832.184,829.559 839.108,827.455C889.922,812.012 943.833,822.682 970.211,880.048C986.134,914.675 985.508,942.994 974.373,965.269C972.748,965.033 971.118,964.813 969.482,964.609C975.149,947.796 973.868,927.545 962.57,903.765C941.233,858.849 897.736,849.211 855.317,859.875C844.834,862.51 834.417,866.385 824.416,871.274C779.401,893.28 742.823,935.826 746.661,978.298C747.829,991.222 755.506,1001.671 767.377,1009.575C765.205,1010.901 763.06,1012.25 760.945,1013.622C739.509,1003.346 724.849,987.861 722.87,967.423C717.64,913.386 763.614,859.847 818.588,835.17Z" style="fill:rgb(70,70,70);stroke:black;stroke-opacity:0;stroke-width:1px;"/>
        </g>
        <g transform="matrix(1,0,0,1,-1.091777,-11.328907)">
            <path d="M1071.073,1118.355C1097.766,1014.089 1003.131,971.204 877.12,1004.235C729.983,1042.805 688.83,1137.271 767.03,1196.99C760.852,1207.177 760.81,1207.088 760.81,1207.088C760.81,1207.088 536.255,1087.802 836.441,978.428C860.508,969.659 886.521,966.218 911.926,963.521C1052.499,948.597 1129.666,1028.711 1080.753,1124.101" style="fill:rgb(70,70,70);stroke:black;stroke-opacity:0;stroke-width:1px;"/>
        </g>
    </g>
    <defs>
        <linearGradient id="_Linear1" x1="0" y1="0" x2="1" y2="0" gradientUnits="userSpaceOnUse" gradientTransform="matrix(180.890457,464.132346,-464.132346,180.890457,886.716877,901.965907)"><stop offset="0" style="stop-color:rgb(38,38,38);stop-opacity:1"/><stop offset="1" style="stop-color:rgb(107,107,107);stop-opacity:1"/></linearGradient>
    </defs>
</svg>
